<svg width="21" height="19" viewBox="0 0 21 19" fill="none" xmlns="http://www.w3.org/2000/svg">
<path d="M10.924 15.5625C12.424 14.2188 13.5333 13.2031 14.2521 12.5156C14.9708 11.8281 15.7521 11.0156 16.5958 10.0781C17.4396 9.14062 18.0177 8.3125 18.3302 7.59375C18.674 6.875 18.8458 6.17188 18.8458 5.48438C18.8458 4.48438 18.5021 3.65625 17.8146 3C17.1583 2.34375 16.3302 2.01562 15.3302 2.01562C14.549 2.01562 13.8146 2.23438 13.1271 2.67188C12.4708 3.10937 12.0177 3.67187 11.7677 4.35938H9.8927C9.6427 3.67187 9.17395 3.10937 8.48645 2.67188C7.8302 2.23438 7.11145 2.01562 6.3302 2.01562C5.3302 2.01562 4.48645 2.34375 3.79895 3C3.1427 3.65625 2.81458 4.48438 2.81458 5.48438C2.81458 6.17188 2.97083 6.875 3.28333 7.59375C3.62708 8.3125 4.22083 9.14062 5.06458 10.0781C5.90833 11.0156 6.68958 11.8281 7.40833 12.5156C8.12708 13.2031 9.23645 14.2188 10.7365 15.5625L10.8302 15.6562L10.924 15.5625ZM15.3302 0C16.8927 0 18.1896 0.53125 19.2208 1.59375C20.2833 2.65625 20.8146 3.95312 20.8146 5.48438C20.8146 6.39062 20.6427 7.28125 20.299 8.15625C19.9552 9 19.3146 9.95312 18.3771 11.0156C17.4708 12.0781 16.6427 12.9688 15.8927 13.6875C15.1427 14.4062 13.9396 15.5156 12.2833 17.0156L10.8302 18.3281L9.37708 17.0625C7.22083 15.125 5.65833 13.6719 4.68958 12.7031C3.75208 11.7344 2.87708 10.5938 2.06458 9.28125C1.25208 7.96875 0.845825 6.70312 0.845825 5.48438C0.845825 3.95312 1.36145 2.65625 2.3927 1.59375C3.4552 0.53125 4.7677 0 6.3302 0C8.1427 0 9.6427 0.703125 10.8302 2.10938C12.0177 0.703125 13.5177 0 15.3302 0Z" fill="white"/>
</svg>
